<svg xmlns="http://www.w3.org/2000/svg" enable-background="new 0 0 24 24" viewBox="0 0 24 24" id="mastercard">
  <path d="M15.913,20c-4.459,0-8.087-3.589-8.087-8s3.628-8,8.087-8S24,7.589,24,12S20.372,20,15.913,20z M15.913,5.5c-3.632,0-6.587,2.916-6.587,6.5s2.955,6.5,6.587,6.5S22.5,15.584,22.5,12S19.545,5.5,15.913,5.5z"></path>
  <path d="M8.087,20C3.628,20,0,16.411,0,12s3.628-8,8.087-8s8.087,3.589,8.087,8S12.546,20,8.087,20z M8.087,5.5C4.455,5.5,1.5,8.416,1.5,12s2.955,6.5,6.587,6.5s6.587-2.916,6.587-6.5S11.719,5.5,8.087,5.5z"></path>
</svg>
